<svg width="96" height="42" fill="none" xmlns="http://www.w3.org/2000/svg"><path d="M9.295 41.9v-3.163H8.54v-.504h.755v-.461c0-.435.12-.767.362-.993.242-.227.577-.34 1.005-.34.254 0 .474.025.665.077v.52a2.463 2.463 0 00-.576-.07c-.546 0-.82.255-.82.765v.503H11.3v.505H9.932v3.163h-.637V41.9zm2.99 0v-3.667h.637v.637c.126-.231.288-.409.484-.533.196-.123.423-.186.682-.186.124 0 .242.01.354.033v.582a3.593 3.593 0 00-.407-.026c-.292 0-.53.083-.712.245a1.44 1.44 0 00-.402.654v2.26h-.636v.001zm5.004.082c-.4 0-.747-.082-1.041-.246a1.728 1.728 0 01-.68-.678 1.996 1.996 0 01-.24-.987c0-.373.08-.703.24-.991a1.73 1.73 0 01.68-.678c.293-.165.64-.247 1.041-.247h.08c.4 0 .747.082 1.041.247.293.164.52.39.68.678.16.288.24.618.24.99 0 .371-.08.701-.24.988-.16.288-.387.514-.68.678-.293.164-.64.246-1.041.246h-.08zm.003-.539h.072c.4 0 .718-.125.951-.376.234-.251.351-.584.351-1 0-.417-.117-.75-.35-1-.234-.249-.551-.374-.952-.374h-.072c-.4 0-.717.125-.95.375-.234.249-.352.582-.352 1 0 .415.118.748.351.999.234.25.55.376.951.376zm3.339.457v-3.667h.637v.682c.146-.236.33-.422.557-.558.226-.136.49-.205.787-.205h.08c.666 0 1.096.293 1.286.877.153-.27.353-.484.6-.64a1.55 1.55 0 01.85-.237h.084c.451 0 .796.14 1.035.415.238.276.356.672.356 1.186V41.9h-.637v-2.065c0-.761-.306-1.142-.916-1.142h-.072c-.287 0-.534.087-.741.261a1.489 1.489 0 00-.451.663V41.9h-.638v-2.063c0-.762-.304-1.143-.912-1.143h-.077a1.11 1.11 0 00-.74.261 1.5 1.5 0 00-.45.663V41.9h-.638zm15.841-5.287v.705c0 .046-.034.076-.083.076h-3.312v1.44h2.734c.05 0 .083.032.083.077v.704c0 .047-.034.077-.083.077h-2.734v2.13c0 .047-.035.076-.084.076h-.83c-.05 0-.083-.03-.083-.076v-5.21c0-.046.034-.075.083-.075h4.226c.05 0 .083.031.083.076zm6.76 5.287h-.914c-.05 0-.083-.022-.096-.069-.121-.44-.269-.905-.437-1.372H38.98c-.168.467-.313.932-.431 1.372-.013.047-.046.069-.096.069h-.881c-.06 0-.092-.031-.075-.084.527-1.708 1.333-3.594 2.147-5.18.037-.072.083-.1.163-.1h1.192c.08 0 .125.028.163.1a33.297 33.297 0 012.147 5.18c.017.054-.018.084-.077.084zm-1.757-2.268a30.412 30.412 0 00-.994-2.253h-.198a30.776 30.776 0 00-.998 2.253h2.19zm3.257-.367c0-1.664 1.2-2.828 2.91-2.828h.126c1.074 0 1.904.498 2.343 1.218.03.046.022.084-.03.108l-.738.333c-.05.022-.112.022-.147-.035-.31-.49-.776-.75-1.462-.75h-.126c-1.077 0-1.82.78-1.82 1.915 0 1.138.728 1.9 1.82 1.9h.126c.704 0 1.114-.218 1.43-.55.042-.042.088-.05.138-.027l.759.337c.03.015.042.034.042.054 0 .02-.008.034-.024.057-.466.62-1.304 1.003-2.327 1.003h-.126c-1.74 0-2.894-1.092-2.894-2.735zm12.06 1.854v.705c0 .046-.035.076-.084.076h-4.402c-.05 0-.083-.031-.083-.076v-5.21c0-.046.034-.076.083-.076h4.327c.051 0 .084.032.084.076v.705c0 .046-.035.076-.084.076H53.22v1.395h2.776c.05 0 .083.031.083.076v.697c0 .046-.034.076-.083.076H53.22v1.402h3.489c.048 0 .083.032.083.078zm7.58-.69c0 .94-.788 1.471-2.18 1.471h-2.885c-.05 0-.084-.031-.084-.076v-5.21c0-.046.035-.076.084-.076h2.63c1.354 0 2.091.49 2.091 1.387 0 .59-.327.977-.99 1.158.931.177 1.333.688 1.333 1.346zm-2.457-3.058H60.22v1.441h1.695c.758 0 1.106-.225 1.106-.72 0-.494-.348-.72-1.106-.72zm1.433 2.978c0-.5-.361-.725-1.154-.725H60.22v1.441h1.974c.806 0 1.154-.215 1.154-.716zm2.78-1.13c0-1.618 1.173-2.782 3.018-2.782h.126c1.845 0 3.018 1.164 3.018 2.781 0 1.617-1.173 2.782-3.018 2.782h-.126c-1.843 0-3.018-1.165-3.018-2.782zm3.146 1.907c1.203 0 1.963-.753 1.963-1.908 0-1.152-.759-1.908-1.963-1.908h-.126c-1.203 0-1.963.754-1.963 1.908 0 1.153.758 1.908 1.963 1.908h.126zm4.72-1.908c0-1.617 1.174-2.781 3.019-2.781h.126c1.845 0 3.018 1.164 3.018 2.781 0 1.617-1.173 2.782-3.018 2.782h-.126c-1.845 0-3.018-1.165-3.018-2.782zm3.145 1.908c1.203 0 1.963-.753 1.963-1.908 0-1.152-.758-1.908-1.963-1.908h-.126c-1.203 0-1.963.754-1.963 1.908 0 1.153.759 1.908 1.963 1.908h.126zm10.25.774h-1.08c-.073 0-.102-.015-.148-.066a21.998 21.998 0 00-2.418-2.226h-.487v2.214c0 .047-.035.076-.084.076h-.83c-.05 0-.083-.03-.083-.076v-5.21c0-.046.034-.075.083-.075h.83c.051 0 .084.031.084.076v2.114h.495a17.227 17.227 0 002.188-2.134.14.14 0 01.126-.056h1.023c.05 0 .075.022.075.053 0 .015-.008.035-.03.057a19.971 19.971 0 01-2.62 2.49 24.42 24.42 0 012.921 2.667c.047.05.023.096-.044.096zM95.065 0H90.07v24.389h4.995V0zM71.691 15.26c0-3.031 2.086-5.347 5.441-5.347 3.206 0 5.48 2.281 5.48 5.347 0 3.1-2.162 5.38-5.48 5.38-3.242 0-5.441-2.28-5.441-5.38zm10.998 9.129h4.772V6.165h-4.848V7.8c-1.006-1.021-3.13-1.941-5.778-1.941-6.076 0-10.14 4.02-10.14 9.4 0 5.655 4.1 9.436 10.14 9.436 3.206 0 5.107-1.226 5.852-2.111v1.805h.002zm-20.28-21.29h-4.996v3.066h-1.938v4.054h1.938v9.095c0 3.61 2.087 5.245 6.076 5.245 1.342 0 2.348-.136 2.534-.17v-4.02h-1.082c-1.9 0-2.534-.68-2.534-2.452V10.22h3.503V6.165h-3.503V3.1h.002zm-8.24 3.032c-.111-.035-.297-.069-.672-.069-2.088 0-2.87 1.159-3.206 1.6V6.166h-4.66V24.39h4.995V13.455c0-1.84.783-2.93 3.541-3.1V6.13h.002zm-26.132 9.163c0-3.065 2.124-5.314 5.406-5.314 3.206 0 5.443 2.281 5.443 5.314s-2.124 5.28-5.406 5.28c-3.206-.002-5.443-2.215-5.443-5.28zm-4.996.033c0 5.381 4.176 9.366 10.402 9.366 6.15 0 10.437-4.087 10.437-9.435 0-5.381-4.138-9.4-10.437-9.4-6.002.001-10.402 4.053-10.402 9.469zm-17.258-.033c0-3.1 2.088-5.381 5.48-5.381 3.316 0 5.516 2.281 5.516 5.381s-2.087 5.348-5.48 5.348c-3.317-.001-5.516-2.248-5.516-5.348zm.148 7.663c.932.75 2.872 1.736 5.63 1.736 6.337 0 10.215-4.19 10.215-9.47 0-5.483-3.951-9.365-9.99-9.365-3.617 0-5.332 1.396-6.003 2.078v-1.77H.936v23.671H5.93v-6.88z" fill="#1B365D"/></svg>